<!DOCTYPE svg PUBLIC "-//W3C//DTD SVG 1.1//EN" "http://www.w3.org/Graphics/SVG/1.1/DTD/svg11.dtd">
<!-- Uploaded to: SVG Repo, www.svgrepo.com, Transformed by: SVG Repo Mixer Tools -->
<svg fill="#000000" height="800px" width="800px" version="1.1" id="Layer_1" xmlns="http://www.w3.org/2000/svg" xmlns:xlink="http://www.w3.org/1999/xlink" viewBox="0 0 512 512" xml:space="preserve" transform="rotate(90)">
<g id="SVGRepo_bgCarrier" stroke-width="0"/>
<g id="SVGRepo_tracerCarrier" stroke-linecap="round" stroke-linejoin="round"/>
<g id="SVGRepo_iconCarrier"> <g> <g> <path d="M501.935,453.289L380.238,331.592c25.603-35.678,39.084-77.641,39.084-121.935C419.323,94.052,325.271,0,209.666,0 S0.008,94.052,0.008,209.658c0,115.605,94.052,209.657,209.657,209.657c44.293,0,86.257-13.482,121.934-39.084l121.697,121.696 c6.495,6.496,15.133,10.074,24.319,10.074s17.824-3.578,24.32-10.074C515.344,488.517,515.344,466.698,501.935,453.289z M487.512,487.503c-2.644,2.643-6.157,4.099-9.895,4.099s-7.252-1.455-9.894-4.099l-127.951-127.95 c-1.979-1.979-4.591-2.987-7.215-2.987c-2.21,0-4.431,0.716-6.286,2.169c-33.558,26.286-73.88,40.181-116.604,40.181 c-104.357,0-189.258-84.901-189.258-189.258s84.9-189.259,189.258-189.259s189.26,84.901,189.26,189.26 c0,42.725-13.894,83.046-40.181,116.604c-3.18,4.059-2.829,9.854,0.817,13.501l127.95,127.95 C492.967,473.169,492.967,482.047,487.512,487.503z"/> </g> </g> <g> <g> <path d="M209.666,46.236c-90.111,0-163.422,73.311-163.422,163.422s73.311,163.421,163.422,163.421 s163.422-73.311,163.422-163.421C373.087,119.546,299.776,46.236,209.666,46.236z M209.666,352.68 c-32.067,0-61.703-10.609-85.584-28.5l56.775-56.775c3.983-3.983,3.983-10.441,0-14.425s-10.441-3.983-14.425,0l-57.806,57.806 c-5.519-5.514-10.586-11.478-15.151-17.827l87.918-87.918c3.983-3.983,3.984-10.441,0-14.424c-3.983-3.984-10.44-3.982-14.425,0 l-84.464,84.464c-10.134-19.617-15.865-41.864-15.865-65.424c0-78.863,64.16-143.023,143.023-143.023 s143.023,64.16,143.023,143.023C352.688,288.52,288.529,352.68,209.666,352.68z"/> </g> </g> <g> <g> <path d="M215.803,156.21c-3.983-3.983-10.44-3.983-14.424,0l-6.99,6.99c-3.983,3.983-3.984,10.441,0,14.424 c1.992,1.992,4.602,2.987,7.212,2.987s5.22-0.996,7.212-2.987l6.99-6.99C219.786,166.651,219.787,160.193,215.803,156.21z"/> </g> </g> </g>
</svg>